<svg xmlns="http://www.w3.org/2000/svg" viewBox="0 0 489.28 156.9"><defs><style>.cls-1{fill:#006799;}.cls-2{fill:#4dbc93;}</style></defs><title>Asset 1</title><g id="Layer_2" data-name="Layer 2"><g id="Layer_1-2" data-name="Layer 1"><path class="cls-1" d="M269.08,50.56h17.67V90.64a56,56,0,0,1-18.1,9.48,69.5,69.5,0,0,1-21.26,3.31,57.33,57.33,0,0,1-27.72-6.68,49.5,49.5,0,0,1-19.39-18.46,50.82,50.82,0,0,1-7-26.58,50.72,50.72,0,0,1,7-26.57A49.5,49.5,0,0,1,219.74,6.68,58.06,58.06,0,0,1,247.68,0a60.9,60.9,0,0,1,23,4.17A45.1,45.1,0,0,1,288,16.38L276.26,27.87a37.78,37.78,0,0,0-27.72-11.49,39.16,39.16,0,0,0-18.89,4.45,32.47,32.47,0,0,0-12.93,12.5,36,36,0,0,0-4.67,18.39,35.42,35.42,0,0,0,4.67,18.1,33.43,33.43,0,0,0,12.93,12.64,38,38,0,0,0,18.75,4.6,40.39,40.39,0,0,0,20.68-5.17Z"/><path class="cls-1" d="M443.89,1.44H425.5l-41.13,91.4L346.93,46.4l42.23-45h-21L318.49,53V1.44H299.82V102h18.67V76.28L334.43,59.9,369.91,102H399.5l9.91-23.27h50.27L469.74,102h19.54ZM415.74,64.06l18.82-43.95,19,44Z"/><path class="cls-1" d="M158.66,48.33v2.05C158.67,49.69,158.67,49,158.66,48.33Z"/><path class="cls-1" d="M73.14,13.91a49.85,49.85,0,0,0-13,22.53V156.9a50,50,0,0,0,37.76-34.09V.41A49.78,49.78,0,0,0,73.14,13.91Z"/><path class="cls-1" d="M120.9.81V97.92a50,50,0,0,0,37.76-47.55v-2A49.88,49.88,0,0,0,120.9.81Z"/><path class="cls-1" d="M14.68,72.37A50.07,50.07,0,0,0,37.16,156.2V59.43A49.63,49.63,0,0,0,14.68,72.37Z"/><path class="cls-2" d="M208.16,121.91h14.49a21,21,0,0,1,9.68,2.16,15.85,15.85,0,0,1,6.56,6.07,18.41,18.41,0,0,1,0,17.93,15.91,15.91,0,0,1-6.56,6.07,21,21,0,0,1-9.68,2.16H208.16ZM222.35,152a15.91,15.91,0,0,0,7.34-1.62,11.74,11.74,0,0,0,4.89-4.54,14.1,14.1,0,0,0,0-13.5,11.74,11.74,0,0,0-4.89-4.54,15.91,15.91,0,0,0-7.34-1.62h-9.28v25.84h9.28Z"/><path class="cls-2" d="M265.8,132.67c1.92,1.77,2.87,4.41,2.87,7.91V156.3H264.2v-3.44a7.5,7.5,0,0,1-3.37,2.78,12.84,12.84,0,0,1-5.18,1,10.82,10.82,0,0,1-7-2.11,7.26,7.26,0,0,1-.12-11.08q2.5-2.08,8-2.09H264v-.93a6,6,0,0,0-1.77-4.67A7.48,7.48,0,0,0,257,134.1a13.71,13.71,0,0,0-4.52.76,11.68,11.68,0,0,0-3.73,2l-2-3.54a14.23,14.23,0,0,1,4.81-2.48,20.27,20.27,0,0,1,5.94-.86Q262.94,130,265.8,132.67Zm-4.69,19.09a6.89,6.89,0,0,0,2.85-3.41v-3.64h-7.27c-4,0-6,1.34-6,4a3.64,3.64,0,0,0,1.52,3.09,7,7,0,0,0,4.22,1.13A8.77,8.77,0,0,0,261.11,151.76Z"/><path class="cls-2" d="M278.75,155.74a13.44,13.44,0,0,1-4.62-2.19l2-3.73a14.14,14.14,0,0,0,4.17,2,17.18,17.18,0,0,0,5,.74q6.19,0,6.19-3.54a2.29,2.29,0,0,0-.84-1.87,5.37,5.37,0,0,0-2.09-1c-.84-.21-2-.45-3.56-.71a34.31,34.31,0,0,1-5.13-1.13,8,8,0,0,1-3.42-2.16,6,6,0,0,1-1.42-4.27,6.65,6.65,0,0,1,3-5.67,13.24,13.24,0,0,1,7.91-2.14,21.6,21.6,0,0,1,5.21.64,14,14,0,0,1,4.27,1.72l-2,3.73a13.5,13.5,0,0,0-7.52-2.06,8.74,8.74,0,0,0-4.57,1,3,3,0,0,0-1.57,2.6,2.47,2.47,0,0,0,.88,2,5.62,5.62,0,0,0,2.19,1.08c.87.23,2.09.49,3.66.79a41,41,0,0,1,5.08,1.15,7.68,7.68,0,0,1,3.32,2.09,5.81,5.81,0,0,1,1.38,4.13,6.5,6.5,0,0,1-3,5.62c-2,1.39-4.76,2.09-8.23,2.09A21.53,21.53,0,0,1,278.75,155.74Z"/><path class="cls-2" d="M323.82,132.89c1.95,1.92,2.92,4.72,2.92,8.42v15H322V141.85a8,8,0,0,0-1.82-5.7,6.83,6.83,0,0,0-5.21-1.92,8.11,8.11,0,0,0-6,2.24,8.75,8.75,0,0,0-2.21,6.41v13.41H302V119.84h4.72v14.1a9.78,9.78,0,0,1,3.86-2.9,13.27,13.27,0,0,1,5.33-1A10.82,10.82,0,0,1,323.82,132.89Z"/><path class="cls-2" d="M356.07,131.69a12,12,0,0,1,4.69,4.67,15.09,15.09,0,0,1,0,13.88,12,12,0,0,1-4.69,4.69,13.74,13.74,0,0,1-6.78,1.67,12.34,12.34,0,0,1-5.3-1.13,10.17,10.17,0,0,1-4-3.29v4.13h-4.52V119.86h4.72V134.2a10,10,0,0,1,3.93-3.12A12.53,12.53,0,0,1,349.3,130,13.7,13.7,0,0,1,356.07,131.69Zm-2.67,19.62a8.3,8.3,0,0,0,3.14-3.24,10.47,10.47,0,0,0,0-9.58,8.24,8.24,0,0,0-3.14-3.22,9.47,9.47,0,0,0-9,0,7.92,7.92,0,0,0-3.14,3.22,10.72,10.72,0,0,0,0,9.58,8.1,8.1,0,0,0,3.14,3.24,8.81,8.81,0,0,0,4.47,1.15A8.72,8.72,0,0,0,353.4,151.31Z"/><path class="cls-2" d="M373.17,154.88a12.53,12.53,0,0,1-4.84-4.74,14.35,14.35,0,0,1,0-13.7,12.34,12.34,0,0,1,4.84-4.72,14.28,14.28,0,0,1,7-1.69,14.13,14.13,0,0,1,7,1.69,12.26,12.26,0,0,1,4.81,4.72,14.35,14.35,0,0,1,0,13.7,12.59,12.59,0,0,1-4.81,4.74,13.94,13.94,0,0,1-7,1.72A14.19,14.19,0,0,1,373.17,154.88Zm11.47-3.57a8.11,8.11,0,0,0,3.12-3.24,10.72,10.72,0,0,0,0-9.58,8,8,0,0,0-3.12-3.22,9.53,9.53,0,0,0-9,0,8,8,0,0,0-3.14,3.22,9.73,9.73,0,0,0-1.16,4.79,9.62,9.62,0,0,0,1.16,4.79,8.36,8.36,0,0,0,3.14,3.24,9.38,9.38,0,0,0,9,0Z"/><path class="cls-2" d="M417.7,132.67c1.92,1.77,2.87,4.41,2.87,7.91V156.3H416.1v-3.44a7.5,7.5,0,0,1-3.37,2.78,12.84,12.84,0,0,1-5.18,1,10.82,10.82,0,0,1-7-2.11,7.26,7.26,0,0,1-.12-11.08q2.51-2.08,8-2.09h7.47v-.93a6,6,0,0,0-1.77-4.67,7.48,7.48,0,0,0-5.21-1.62,13.71,13.71,0,0,0-4.52.76,11.68,11.68,0,0,0-3.73,2l-2-3.54a14.23,14.23,0,0,1,4.81-2.48,20.27,20.27,0,0,1,5.94-.86Q414.83,130,417.7,132.67ZM413,151.76a6.89,6.89,0,0,0,2.85-3.41v-3.64h-7.27c-4,0-6,1.34-6,4a3.64,3.64,0,0,0,1.52,3.09,7,7,0,0,0,4.22,1.13A8.79,8.79,0,0,0,413,151.76Z"/><path class="cls-2" d="M437.47,131.2a13.12,13.12,0,0,1,5.85-1.18v4.57a9.75,9.75,0,0,0-1.08-.05,8,8,0,0,0-6,2.28,9,9,0,0,0-2.19,6.51v13h-4.72v-26h4.52v4.37A8.12,8.12,0,0,1,437.47,131.2Z"/><path class="cls-2" d="M473.43,119.85V156.3h-4.52v-4.13a10.24,10.24,0,0,1-4,3.29,12.34,12.34,0,0,1-5.3,1.13,13.74,13.74,0,0,1-6.78-1.67,12,12,0,0,1-4.69-4.69,15.09,15.09,0,0,1,0-13.88,12,12,0,0,1,4.69-4.67,13.74,13.74,0,0,1,6.78-1.67,12.37,12.37,0,0,1,5.16,1.06,10.06,10.06,0,0,1,3.93,3.12V119.85Zm-8.94,31.46a8.1,8.1,0,0,0,3.14-3.24,10.72,10.72,0,0,0,0-9.58,8,8,0,0,0-3.14-3.22,9.47,9.47,0,0,0-9,0,8,8,0,0,0-3.14,3.22,9.73,9.73,0,0,0-1.16,4.79,9.62,9.62,0,0,0,1.16,4.79,8.36,8.36,0,0,0,3.14,3.24,9.32,9.32,0,0,0,9,0Z"/></g></g></svg>