<?xml version="1.0" encoding="utf-8"?>
<!-- Generator: Adobe Illustrator 23.1.1, SVG Export Plug-In . SVG Version: 6.00 Build 0)  -->
<svg version="1.1" id="Layer_1" xmlns="http://www.w3.org/2000/svg" xmlns:xlink="http://www.w3.org/1999/xlink" x="0px" y="0px"
	 viewBox="0 0 489.3 156.9" style="enable-background:new 0 0 489.3 156.9;" xml:space="preserve">
<style type="text/css">
	.st0{fill:#FFFFFF;}
	.st1{fill:#006799;}
	.st2{fill:#4DBC93;}
</style>
<title>Asset 1</title>
<g>
	<g id="Layer_1-2">
		<path class="st0" d="M269.1,50.6h17.7v40.1c-5.4,4.2-11.5,7.5-18.1,9.5c-6.9,2.2-14,3.3-21.3,3.3c-9.7,0.1-19.2-2.2-27.7-6.7
			c-8-4.3-14.7-10.6-19.4-18.5c-4.7-8-7.2-17.2-7-26.6c-0.2-9.3,2.3-18.5,7-26.6c4.7-7.8,11.4-14.2,19.5-18.5
			c8.6-4.5,18.2-6.8,27.9-6.7c7.9-0.1,15.7,1.3,23,4.2c6.7,2.6,12.6,6.8,17.3,12.2l-11.7,11.5c-7.3-7.5-17.3-11.7-27.7-11.5
			c-6.6-0.1-13.1,1.4-18.9,4.5c-5.4,2.9-9.9,7.2-12.9,12.5c-3.2,5.6-4.8,12-4.7,18.4c-0.1,6.3,1.5,12.6,4.7,18.1
			c3.1,5.3,7.5,9.7,12.9,12.6c5.7,3.1,12.2,4.7,18.8,4.6c7.2,0.2,14.4-1.6,20.7-5.2V50.6z"/>
		<path class="st0" d="M443.9,1.4h-18.4l-41.1,91.4l-37.4-46.4l42.2-45h-21L318.5,53V1.4h-18.7V102h18.7V76.3l15.9-16.4l35.5,42.1
			h29.6l9.9-23.3h50.3l10.1,23.3h19.5L443.9,1.4z M415.7,64.1l18.8-44l19,44L415.7,64.1z"/>
		<path class="st1" d="M158.7,48.3v2C158.7,49.7,158.7,49,158.7,48.3z"/>
		<path class="st2" d="M73.1,13.9c-6.3,6.2-10.7,14-13,22.5v120.5c17.9-3.6,32.3-16.7,37.8-34.1V0.4C88.5,2.4,79.9,7.1,73.1,13.9z"
			/>
		<path class="st2" d="M120.9,0.8v97.1c21.9-5.5,37.3-25,37.8-47.5v-2C158.3,25.8,142.8,6.3,120.9,0.8z"/>
		<path class="st2" d="M14.7,72.4c-19.6,19.5-19.6,51.2-0.1,70.8c6.2,6.3,14,10.7,22.6,13V59.4C28.7,61.7,20.9,66.1,14.7,72.4z"/>
		<path class="st0" d="M208.2,121.9h14.5c3.4-0.1,6.7,0.7,9.7,2.2c2.7,1.4,5,3.5,6.6,6.1c3.1,5.6,3.1,12.4,0,17.9
			c-1.6,2.6-3.8,4.7-6.6,6.1c-3,1.5-6.3,2.2-9.7,2.2h-14.5V121.9z M222.4,152c2.5,0.1,5.1-0.5,7.3-1.6c2-1,3.7-2.6,4.9-4.5
			c2.3-4.2,2.3-9.3,0-13.5c-1.2-2-2.9-3.5-4.9-4.5c-2.3-1.1-4.8-1.7-7.3-1.6h-9.3V152L222.4,152L222.4,152z"/>
		<path class="st0" d="M265.8,132.7c1.9,1.8,2.9,4.4,2.9,7.9v15.7h-4.5v-3.4c-0.8,1.2-2,2.2-3.4,2.8c-1.6,0.7-3.4,1-5.2,1
			c-2.5,0.1-5-0.6-7-2.1c-3.1-2.6-3.5-7.1-1-10.2c0.3-0.3,0.5-0.6,0.8-0.9c1.7-1.4,4.3-2.1,8-2.1h7.5v-0.9c0.1-1.7-0.5-3.4-1.8-4.7
			c-1.5-1.2-3.3-1.8-5.2-1.7c-1.5,0-3.1,0.3-4.5,0.8c-1.4,0.4-2.6,1.1-3.7,2l-2-3.5c1.4-1.1,3.1-2,4.8-2.5c1.9-0.6,3.9-0.9,5.9-0.9
			C261.1,130,263.9,130.9,265.8,132.7z M261.1,151.8c1.3-0.8,2.3-2,2.9-3.4v-3.6h-7.3c-4,0-6,1.3-6,4c0,1.2,0.5,2.4,1.5,3.1
			c1.3,0.8,2.7,1.2,4.2,1.1C258.1,153,259.7,152.6,261.1,151.8z"/>
		<path class="st0" d="M278.8,155.7c-1.7-0.4-3.2-1.2-4.6-2.2l2-3.7c1.3,0.9,2.7,1.6,4.2,2c1.6,0.5,3.3,0.7,5,0.7
			c4.1,0,6.2-1.2,6.2-3.5c0-0.7-0.3-1.4-0.8-1.9c-0.6-0.5-1.3-0.8-2.1-1c-0.8-0.2-2-0.4-3.6-0.7c-1.7-0.2-3.5-0.6-5.1-1.1
			c-1.3-0.4-2.5-1.2-3.4-2.2c-1-1.2-1.5-2.7-1.4-4.3c0-2.3,1.1-4.4,3-5.7c2.3-1.5,5.1-2.3,7.9-2.1c1.8,0,3.5,0.2,5.2,0.6
			c1.5,0.3,3,0.9,4.3,1.7l-2,3.7c-2.2-1.4-4.9-2.1-7.5-2.1c-1.6-0.1-3.2,0.3-4.6,1c-1,0.5-1.6,1.5-1.6,2.6c0,0.8,0.3,1.5,0.9,2
			c0.6,0.5,1.4,0.9,2.2,1.1c0.9,0.2,2.1,0.5,3.7,0.8c1.7,0.3,3.4,0.7,5.1,1.1c1.3,0.4,2.4,1.1,3.3,2.1c1,1.1,1.5,2.6,1.4,4.1
			c0,2.3-1.1,4.4-3,5.6c-2,1.4-4.8,2.1-8.2,2.1C282.9,156.7,280.8,156.4,278.8,155.7z"/>
		<path class="st0" d="M323.8,132.9c2,1.9,2.9,4.7,2.9,8.4v15H322v-14.5c0.2-2.1-0.5-4.1-1.8-5.7c-1.4-1.3-3.3-2-5.2-1.9
			c-2.2-0.1-4.4,0.7-6,2.2c-1.6,1.8-2.4,4.1-2.2,6.4v13.4H302v-36.5h4.7v14.1c1-1.3,2.4-2.3,3.9-2.9c1.7-0.7,3.5-1,5.3-1
			C318.8,129.9,321.7,130.9,323.8,132.9z"/>
		<path class="st0" d="M356.1,131.7c2,1.1,3.6,2.7,4.7,4.7c2.3,4.4,2.3,9.5,0,13.9c-1.1,2-2.7,3.6-4.7,4.7c-2.1,1.1-4.4,1.7-6.8,1.7
			c-1.8,0-3.6-0.4-5.3-1.1c-1.6-0.7-3-1.9-4-3.3v4.1h-4.5v-36.5h4.7v14.3c1-1.4,2.4-2.4,3.9-3.1c1.6-0.7,3.4-1.1,5.2-1.1
			C351.7,130,354,130.6,356.1,131.7z M353.4,151.3c1.3-0.8,2.4-1.9,3.1-3.2c1.5-3,1.5-6.6,0-9.6c-0.7-1.3-1.8-2.5-3.1-3.2
			c-2.8-1.5-6.2-1.5-9,0c-1.3,0.7-2.4,1.9-3.1,3.2c-1.5,3-1.5,6.6,0,9.6c0.7,1.4,1.8,2.5,3.1,3.2c1.4,0.8,2.9,1.2,4.5,1.1
			C350.5,152.5,352,152.1,353.4,151.3z"/>
		<path class="st0" d="M373.2,154.9c-2-1.1-3.7-2.7-4.8-4.7c-2.3-4.3-2.3-9.4,0-13.7c1.1-2,2.8-3.6,4.8-4.7c2.2-1.2,4.6-1.7,7-1.7
			c2.4-0.1,4.9,0.5,7,1.7c2,1.1,3.7,2.7,4.8,4.7c2.3,4.3,2.3,9.4,0,13.7c-1.1,2-2.8,3.6-4.8,4.7c-2.1,1.2-4.6,1.8-7,1.7
			C377.7,156.6,375.3,156,373.2,154.9z M384.6,151.3c1.3-0.8,2.4-1.9,3.1-3.2c1.5-3,1.5-6.6,0-9.6c-0.7-1.3-1.8-2.5-3.1-3.2
			c-2.8-1.5-6.2-1.5-9,0c-1.3,0.8-2.4,1.9-3.1,3.2c-0.8,1.5-1.2,3.1-1.2,4.8c0,1.7,0.4,3.3,1.2,4.8c0.7,1.3,1.8,2.5,3.1,3.2
			C378.4,152.8,381.8,152.8,384.6,151.3L384.6,151.3z"/>
		<path class="st0" d="M417.7,132.7c1.9,1.8,2.9,4.4,2.9,7.9v15.7h-4.5v-3.4c-0.8,1.2-2,2.2-3.4,2.8c-1.6,0.7-3.4,1-5.2,1
			c-2.5,0.1-5-0.6-7-2.1c-3.1-2.6-3.5-7.1-1-10.2c0.3-0.3,0.5-0.6,0.8-0.9c1.7-1.4,4.3-2.1,8-2.1h7.5v-0.9c0.1-1.7-0.5-3.4-1.8-4.7
			c-1.5-1.2-3.3-1.8-5.2-1.6c-1.5,0-3.1,0.3-4.5,0.8c-1.4,0.4-2.6,1.1-3.7,2l-2-3.5c1.4-1.1,3.1-2,4.8-2.5c1.9-0.6,3.9-0.9,5.9-0.9
			C413,130,415.8,130.9,417.7,132.7z M413,151.8c1.3-0.8,2.3-2,2.9-3.4v-3.6h-7.3c-4,0-6,1.3-6,4c0,1.2,0.5,2.4,1.5,3.1
			c1.3,0.8,2.7,1.2,4.2,1.1C410,153,411.6,152.6,413,151.8z"/>
		<path class="st0" d="M437.5,131.2c1.8-0.8,3.8-1.2,5.9-1.2v4.6c-0.4,0-0.7-0.1-1.1-0.1c-2.2-0.1-4.4,0.7-6,2.3
			c-1.6,1.8-2.3,4.1-2.2,6.5v13h-4.7v-26h4.5v4.4C434.7,133.2,435.9,132,437.5,131.2z"/>
		<path class="st0" d="M473.4,119.8v36.5h-4.5v-4.1c-1,1.4-2.4,2.6-4,3.3c-1.7,0.8-3.5,1.2-5.3,1.1c-2.4,0-4.7-0.5-6.8-1.7
			c-2-1.1-3.6-2.7-4.7-4.7c-2.3-4.4-2.3-9.5,0-13.9c1.1-2,2.7-3.6,4.7-4.7c2.1-1.1,4.4-1.7,6.8-1.7c1.8,0,3.5,0.3,5.2,1.1
			c1.6,0.7,2.9,1.8,3.9,3.1v-14.3H473.4z M464.5,151.3c1.3-0.8,2.4-1.9,3.1-3.2c1.5-3,1.5-6.6,0-9.6c-0.7-1.4-1.8-2.5-3.1-3.2
			c-2.8-1.5-6.2-1.5-9,0c-1.3,0.8-2.4,1.9-3.1,3.2c-0.8,1.5-1.2,3.1-1.2,4.8c0,1.7,0.4,3.3,1.2,4.8c0.7,1.3,1.8,2.5,3.1,3.2
			C458.3,152.9,461.7,152.9,464.5,151.3L464.5,151.3z"/>
	</g>
</g>
</svg>
